<svg width="33" height="32" viewBox="0 0 33 32" fill="none" xmlns="http://www.w3.org/2000/svg">
<g id="account_circle">
<mask id="mask0_45_166" style="mask-type:alpha" maskUnits="userSpaceOnUse" x="0" y="0" width="33" height="32">
<rect id="Bounding box" x="0.466309" y="0.293335" width="31.6276" height="31.6276" fill="#D9D9D9"/>
</mask>
<g mask="url(#mask0_45_166)">
<path id="account_circle_2" d="M8.17552 22.828C9.29567 21.9715 10.5476 21.2959 11.9313 20.8012C13.315 20.3075 14.7646 20.0606 16.2801 20.0606C17.7956 20.0606 19.2452 20.3075 20.6289 20.8012C22.0126 21.2959 23.2645 21.9715 24.3847 22.828C25.1534 21.9275 25.7521 20.9062 26.1808 19.7641C26.6087 18.622 26.8226 17.403 26.8226 16.1072C26.8226 13.186 25.796 10.6984 23.7429 8.64439C21.6889 6.59123 19.2013 5.56465 16.2801 5.56465C13.3589 5.56465 10.8718 6.59123 8.81862 8.64439C6.76458 10.6984 5.73756 13.186 5.73756 16.1072C5.73756 17.403 5.95193 18.622 6.38066 19.7641C6.80851 20.9062 7.4068 21.9275 8.17552 22.828ZM16.2801 17.425C14.9842 17.425 13.8913 16.9805 13.0014 16.0914C12.1123 15.2014 11.6677 14.1085 11.6677 12.8126C11.6677 11.5168 12.1123 10.4239 13.0014 9.53391C13.8913 8.64483 14.9842 8.20028 16.2801 8.20028C17.5759 8.20028 18.6689 8.64483 19.5588 9.53391C20.4479 10.4239 20.8925 11.5168 20.8925 12.8126C20.8925 14.1085 20.4479 15.2014 19.5588 16.0914C18.6689 16.9805 17.5759 17.425 16.2801 17.425ZM16.2801 29.2853C14.4571 29.2853 12.744 28.9392 11.1406 28.2469C9.53727 27.5555 8.14258 26.6168 6.95654 25.4307C5.77051 24.2447 4.83178 22.85 4.14037 21.2467C3.44808 19.6433 3.10193 17.9302 3.10193 16.1072C3.10193 14.2842 3.44808 12.571 4.14037 10.9677C4.83178 9.36435 5.77051 7.96966 6.95654 6.78363C8.14258 5.59759 9.53727 4.65843 11.1406 3.96614C12.744 3.27472 14.4571 2.92902 16.2801 2.92902C18.1031 2.92902 19.8162 3.27472 21.4196 3.96614C23.0229 4.65843 24.4176 5.59759 25.6036 6.78363C26.7897 7.96966 27.7284 9.36435 28.4198 10.9677C29.1121 12.571 29.4583 14.2842 29.4583 16.1072C29.4583 17.9302 29.1121 19.6433 28.4198 21.2467C27.7284 22.85 26.7897 24.2447 25.6036 25.4307C24.4176 26.6168 23.0229 27.5555 21.4196 28.2469C19.8162 28.9392 18.1031 29.2853 16.2801 29.2853ZM16.2801 26.6497C17.4442 26.6497 18.5423 26.4797 19.5746 26.1397C20.6069 25.7988 21.5514 25.3099 22.4079 24.673C21.5514 24.036 20.6069 23.5471 19.5746 23.2063C18.5423 22.8663 17.4442 22.6963 16.2801 22.6963C15.116 22.6963 14.0178 22.8663 12.9856 23.2063C11.9533 23.5471 11.0088 24.036 10.1522 24.673C11.0088 25.3099 11.9533 25.7988 12.9856 26.1397C14.0178 26.4797 15.116 26.6497 16.2801 26.6497ZM16.2801 14.7894C16.8511 14.7894 17.3234 14.6027 17.6967 14.2293C18.0701 13.8559 18.2568 13.3837 18.2568 12.8126C18.2568 12.2416 18.0701 11.7694 17.6967 11.396C17.3234 11.0226 16.8511 10.8359 16.2801 10.8359C15.709 10.8359 15.2368 11.0226 14.8634 11.396C14.4901 11.7694 14.3034 12.2416 14.3034 12.8126C14.3034 13.3837 14.4901 13.8559 14.8634 14.2293C15.2368 14.6027 15.709 14.7894 16.2801 14.7894Z" fill="#FDFDFD"/>
</g>
</g>
</svg>
