<svg width="32" height="32" viewBox="0 0 32 32" fill="none" xmlns="http://www.w3.org/2000/svg">
<g id="local_convenience_store">
<mask id="mask0_45_156" style="mask-type:alpha" maskUnits="userSpaceOnUse" x="0" y="0" width="32" height="32">
<rect id="Bounding box" width="31.6276" height="31.6276" fill="#D9D9D9"/>
</mask>
<g mask="url(#mask0_45_156)">
<path id="local_convenience_store_2" d="M10.5754 23.7207H14.5289V22.4029H11.8932V21.0851H14.5289V17.1316H10.5754V18.4494H13.211V19.7673H10.5754V23.7207ZM19.8001 23.7207H21.1179V17.1316H19.8001V19.7673H18.4823V17.1316H17.1645V21.0851H19.8001V23.7207ZM27.707 14.5619V25.0385C27.707 25.7633 27.4492 26.384 26.9335 26.9006C26.4169 27.4163 25.7962 27.6742 25.0714 27.6742H6.62196C5.89716 27.6742 5.27691 27.4163 4.7612 26.9006C4.24462 26.384 3.98633 25.7633 3.98633 25.0385V14.5619C3.48116 14.1006 3.09153 13.5076 2.81742 12.7828C2.54244 12.058 2.53673 11.2673 2.80029 10.4108L4.184 5.93019C4.35971 5.35913 4.67291 4.88691 5.1236 4.51353C5.57342 4.14015 6.09483 3.95346 6.68785 3.95346H25.0055C25.5985 3.95346 26.1147 4.13444 26.5539 4.4964C26.9932 4.85924 27.3117 5.33717 27.5093 5.93019L28.8931 10.4108C29.1566 11.2673 29.1514 12.0471 28.8772 12.7499C28.6023 13.4527 28.2122 14.0567 27.707 14.5619ZM18.7459 13.1782C19.3389 13.1782 19.7891 12.9748 20.0966 12.568C20.4041 12.1621 20.5249 11.7066 20.459 11.2015L19.7342 6.58909H17.1645V11.465C17.1645 11.9263 17.3182 12.3273 17.6257 12.6682C17.9332 13.0082 18.3066 13.1782 18.7459 13.1782ZM12.8157 13.1782C13.3209 13.1782 13.7329 13.0082 14.0518 12.6682C14.3698 12.3273 14.5289 11.9263 14.5289 11.465V6.58909H11.9591L11.2343 11.2015C11.1465 11.7286 11.262 12.1898 11.5809 12.5852C11.8989 12.9805 12.3105 13.1782 12.8157 13.1782ZM6.95141 13.1782C7.34676 13.1782 7.69247 13.0354 7.98854 12.7499C8.28548 12.4644 8.4669 12.102 8.53279 11.6627L9.25759 6.58909H6.68785L5.37003 11.0038C5.23825 11.4431 5.30941 11.9153 5.58352 12.4204C5.8585 12.9256 6.31447 13.1782 6.95141 13.1782ZM24.7419 13.1782C25.3789 13.1782 25.8401 12.9256 26.1256 12.4204C26.4112 11.9153 26.4771 11.4431 26.3233 11.0038L24.9396 6.58909H22.4358L23.1606 11.6627C23.2264 12.102 23.4079 12.4644 23.7048 12.7499C24.0009 13.0354 24.3466 13.1782 24.7419 13.1782ZM6.62196 25.0385H25.0714V15.7479C24.9616 15.7918 24.8904 15.8138 24.8579 15.8138H24.7419C24.1489 15.8138 23.6271 15.715 23.1764 15.5173C22.7266 15.3196 22.282 15.0012 21.8427 14.5619C21.4474 14.9572 20.9971 15.2647 20.492 15.4844C19.9868 15.704 19.4487 15.8138 18.8777 15.8138C18.2846 15.8138 17.7298 15.704 17.2133 15.4844C16.6975 15.2647 16.242 14.9572 15.8467 14.5619C15.4733 14.9572 15.0397 15.2647 14.546 15.4844C14.0514 15.704 13.5185 15.8138 12.9475 15.8138C12.3105 15.8138 11.7338 15.704 11.2172 15.4844C10.7015 15.2647 10.246 14.9572 9.85061 14.5619C9.38937 15.0231 8.93385 15.3469 8.48404 15.5331C8.03334 15.7202 7.52247 15.8138 6.95141 15.8138H6.80382C6.74847 15.8138 6.68785 15.7918 6.62196 15.7479V25.0385Z" fill="#FDFDFD"/>
</g>
</g>
</svg>
